# xmcd CD database file
#
# Track frame offsets:
#	150
#	22972
#	45690
#	62821
#	88002
#	104560
#	129292
#	148669
#	162444
#	182966
#	184623
#	217808
#	241395
#
# Disc length: 3560 seconds
#
# Revision: 0
# Processed by: cddbd v1.5.1PL0 Copyright (c) Steve Scherf et al.
# Submitted via: CDex 1.51
#
DISCID=b40de60d
DTITLE=Tok Tok Tok - 50 Ways to Leave Your Lover
DYEAR=2005
DGENRE=Jazz
TTITLE0=Monkey-See and Monkey-Do
TTITLE1=Alone Again
TTITLE2=Day Tripper
TTITLE3=I'll Never Fall in Love Again
TTITLE4=50 Ways to Leave Your Lover
TTITLE5=Crime of Crimes
TTITLE6=The Jack
TTITLE7=Straighten Up and Fly Right
TTITLE8=I Wish
TTITLE9=Her Majesty
TTITLE10=Sometimes I Feel Like a Motherless Child
TTITLE11=Hallelujah
TTITLE12=Boogie Woogie Bossa Nova
EXTD=YEAR: 2005
EXTT0=
EXTT1=
EXTT2=
EXTT3=
EXTT4=
EXTT5=
EXTT6=
EXTT7=
EXTT8=
EXTT9=
EXTT10=
EXTT11=
EXTT12=
PLAYORDER=
